/* XPM */
static char *_69df92fe4fe4390c36e469988437bb3iWF5DUbc83QkWACH[] = {
/* columns rows colors chars-per-pixel */
"128 128 40 1 ",
"  c white",
". c gray56",
"X c #8D8D8D",
"o c gray55",
"O c #808080",
"+ c #8B8B8B",
"@ c #8E8E8E",
"# c gray57",
"$ c #909090",
"% c #838383",
"& c gray51",
"* c #4F0000",
"= c #8B0000",
"- c #7F0000",
"; c #890000",
": c #8E0000",
"> c #8C0000",
", c #8F0000",
"< c #810000",
"1 c #800000",
"2 c #8A0000",
"3 c #500000",
"4 c #8D0000",
"5 c red",
"6 c #898989",
"7 c #870000",
"8 c gray53",
"9 c gray50",
"0 c #820000",
"q c #900000",
"w c gray54",
"e c #888888",
"r c #860000",
"t c #880000",
"y c #868686",
"u c #910000",
"i c #850000",
"p c gray52",
"a c #830000",
"s c #818181",
/* pixels */
"                                                                                                                                ",
"                                                                                                                                ",
"                                                                                                                                ",
"                                                                                                                                ",
"                                                                                                                                ",
"       .XoO+OO.OO.OO@OOO#OOO$OOO%OOOO$OOOO#OOOO#OOOO#OOOOXOOOOOOOOOOoOOOO#OOOO#OOOO#OOOO$OOOO&OOO$OOO#OOOXOO.OO$OO+OoX.         ",
"      .*==-;--:--:-->---,---,---<----,----,----,----,----=----------=----,----,----,----,----1---,---,--->--:--:--;-2>3@        ",
"      @455555555555555555555555555555555555555555555555555555555555555555555555555555555555555555555555555555555555555:X        ",
"      6755555555555555555555555555555555555555555555555555555555555555555555555555555555555555555555555555555555555555;8        ",
"      O-5555555555555555555555555555555555555555555555555555555555555555555555555555555555555555555555555555555555555519        ",
"      &1555555555555555555555555555555555555555555555555555555555555555555555555555555555555555555555555555555555555550O        ",
"      O-5555555555555555555555555555555555555555555555555555555555555555555555555555555555555555555555555555555555555519        ",
"      O-5555555555555555555555555555555555555555555555555555555555555555555555555555555555555555555555555555555555555519        ",
"      $,55555555555555555555555555555555555555555555555555555555555555555555555555555555555555555555555555555555555555q.        ",
"      O-5555555555555555555555555555555555555555555555555555555555555555555555555555555555555555555555555555555555555519        ",
"      O-5555555555555555555555555555555555555555555555555555555555555555555555555555555555555555555555555555555555555519        ",
"      @455555555555555555555555555555555555555555555555555555555555555555555555555555555555555555555555555555555555555:X        ",
"      O-5555555555555555555555555555555555555555555555555555555555555555555555555555555555555555555555555555555555555519        ",
"      O-5555555555555555555555555555555555555555555555555555555555555555555555555555555555555555555555555555555555555519        ",
"      O-5555555555555555555555555555555555555555555555555555555555555555555555555555555555555555555555555555555555555519        ",
"      o255555555555555555555555555555555555555555555555555555555555555555555555555555555555555555555555555555555555555>w        ",
"      O-5555555555555555555555555555555555555555555555555555555555555555555555555555555555555555555555555555555555555519        ",
"      O-5555555555555555555555555555555555555555555555555555555555555555555555555555555555555555555555555555555555555519        ",
"      O-5555555555555555555555555555555555555555555555555555555555555555555555555555555555555555555555555555555555555519        ",
"      er55555555555555555555555555555555555555555555555555555555555555555555555555555555555555555555555555555555555555ty        ",
"      O-5555555555555555555555555555555555555555555555555555555555555555555555555555555555555555555555555555555555555519        ",
"      O-5555555555555555555555555555555555555555555555555555555555555555555555555555555555555555555555555555555555555519        ",
"      O-5555555555555555555555555555555555555555555555555555555555555555555555555555555555555555555555555555555555555519        ",
"      $:55555555555555555555555555555555555555555555555555555555555555555555555555555555555555555555555555555555555555q@        ",
"      O-5555555555555555555555555555555555555555555555555555555555555555555555555555555555555555555555555555555555555519        ",
"      O-5555555555555555555555555555555555555555555555555555555555555555555555555555555555555555555555555555555555555519        ",
"      O-5555555555555555555555555555555555555555555555555555555555555555555555555555555555555555555555555555555555555519        ",
"      8r555555555555555555555555555555555555555555555555555555555555555555555555555555555555555555555555555555555555557y        ",
"      O-5555555555555555555555555555555555555555555555555555555555555555555555555555555555555555555555555555555555555519        ",
"      O-5555555555555555555555555555555555555555555555555555555555555555555555555555555555555555555555555555555555555519        ",
"      O-5555555555555555555555555555555555555555555555555555555555555555555555555555555555555555555555555555555555555519        ",
"      O-5555555555555555555555555555555555555555555555555555555555555555555555555555555555555555555555555555555555555519        ",
"      .455555555555555555555555555555555555555555555555555555555555555555555555555555555555555555555555555555555555555,X        ",
"      O-5555555555555555555555555555555555555555555555555555555555555555555555555555555555555555555555555555555555555519        ",
"      O-5555555555555555555555555555555555555555555555555555555555555555555555555555555555555555555555555555555555555519        ",
"      O-5555555555555555555555555555555555555555555555555555555555555555555555555555555555555555555555555555555555555519        ",
"      O-5555555555555555555555555555555555555555555555555555555555555555555555555555555555555555555555555555555555555519        ",
"      @455555555555555555555555555555555555555555555555555555555555555555555555555555555555555555555555555555555555555:X        ",
"      O-5555555555555555555555555555555555555555555555555555555555555555555555555555555555555555555555555555555555555519        ",
"      O-5555555555555555555555555555555555555555555555555555555555555555555555555555555555555555555555555555555555555519        ",
"      O-5555555555555555555555555555555555555555555555555555555555555555555555555555555555555555555555555555555555555519        ",
"      O-5555555555555555555555555555555555555555555555555555555555555555555555555555555555555555555555555555555555555519        ",
"      er55555555555555555555555555555555555555555555555555555555555555555555555555555555555555555555555555555555555555ty        ",
"      O-5555555555555555555555555555555555555555555555555555555555555555555555555555555555555555555555555555555555555519        ",
"      O-5555555555555555555555555555555555555555555555555555555555555555555555555555555555555555555555555555555555555519        ",
"      O-5555555555555555555555555555555555555555555555555555555555555555555555555555555555555555555555555555555555555519        ",
"      O-5555555555555555555555555555555555555555555555555555555555555555555555555555555555555555555555555555555555555519        ",
"      O-5555555555555555555555555555555555555555555555555555555555555555555555555555555555555555555555555555555555555519        ",
"      w;5555555555555555555555555555555555555555555555555555555555555555555555555555555555555555555555555555555555555526        ",
"      O-5555555555555555555555555555555555555555555555555555555555555555555555555555555555555555555555555555555555555519        ",
"      O-5555555555555555555555555555555555555555555555555555555555555555555555555555555555555555555555555555555555555519        ",
"      O-5555555555555555555555555555555555555555555555555555555555555555555555555555555555555555555555555555555555555519        ",
"      O-5555555555555555555555555555555555555555555555555555555555555555555555555555555555555555555555555555555555555519        ",
"      #,55555555555555555555555555555555555555555555555555555555555555555555555555555555555555555555555555555555555555u.        ",
"      O-5555555555555555555555555555555555555555555555555555555555555555555555555555555555555555555555555555555555555519        ",
"      O-5555555555555555555555555555555555555555555555555555555555555555555555555555555555555555555555555555555555555519        ",
"      O-5555555555555555555555555555555555555555555555555555555555555555555555555555555555555555555555555555555555555519        ",
"      O-5555555555555555555555555555555555555555555555555555555555555555555555555555555555555555555555555555555555555519        ",
"      O-5555555555555555555555555555555555555555555555555555555555555555555555555555555555555555555555555555555555555519        ",
"      O-5555555555555555555555555555555555555555555555555555555555555555555555555555555555555555555555555555555555555519        ",
"      O-5555555555555555555555555555555555555555555555555555555555555555555555555555555555555555555555555555555555555519        ",
"      O-5555555555555555555555555555555555555555555555555555555555555555555555555555555555555555555555555555555555555519        ",
"      O-5555555555555555555555555555555555555555555555555555555555555555555555555555555555555555555555555555555555555519        ",
"      O-5555555555555555555555555555555555555555555555555555555555555555555555555555555555555555555555555555555555555519        ",
"      #,55555555555555555555555555555555555555555555555555555555555555555555555555555555555555555555555555555555555555u.        ",
"      O-5555555555555555555555555555555555555555555555555555555555555555555555555555555555555555555555555555555555555519        ",
"      O-5555555555555555555555555555555555555555555555555555555555555555555555555555555555555555555555555555555555555519        ",
"      O-5555555555555555555555555555555555555555555555555555555555555555555555555555555555555555555555555555555555555519        ",
"      O-5555555555555555555555555555555555555555555555555555555555555555555555555555555555555555555555555555555555555519        ",
"      +;55555555555555555555555555555555555555555555555555555555555555555555555555555555555555555555555555555555555555=6        ",
"      O-5555555555555555555555555555555555555555555555555555555555555555555555555555555555555555555555555555555555555519        ",
"      O-5555555555555555555555555555555555555555555555555555555555555555555555555555555555555555555555555555555555555519        ",
"      O-5555555555555555555555555555555555555555555555555555555555555555555555555555555555555555555555555555555555555519        ",
"      O-5555555555555555555555555555555555555555555555555555555555555555555555555555555555555555555555555555555555555519        ",
"      O-5555555555555555555555555555555555555555555555555555555555555555555555555555555555555555555555555555555555555519        ",
"      8r555555555555555555555555555555555555555555555555555555555555555555555555555555555555555555555555555555555555557y        ",
"      O-5555555555555555555555555555555555555555555555555555555555555555555555555555555555555555555555555555555555555519        ",
"      O-5555555555555555555555555555555555555555555555555555555555555555555555555555555555555555555555555555555555555519        ",
"      O-5555555555555555555555555555555555555555555555555555555555555555555555555555555555555555555555555555555555555519        ",
"      O-5555555555555555555555555555555555555555555555555555555555555555555555555555555555555555555555555555555555555519        ",
"      @455555555555555555555555555555555555555555555555555555555555555555555555555555555555555555555555555555555555555:X        ",
"      O-5555555555555555555555555555555555555555555555555555555555555555555555555555555555555555555555555555555555555519        ",
"      O-5555555555555555555555555555555555555555555555555555555555555555555555555555555555555555555555555555555555555519        ",
"      O-5555555555555555555555555555555555555555555555555555555555555555555555555555555555555555555555555555555555555519        ",
"      O-5555555555555555555555555555555555555555555555555555555555555555555555555555555555555555555555555555555555555519        ",
"      @455555555555555555555555555555555555555555555555555555555555555555555555555555555555555555555555555555555555555:X        ",
"      O-5555555555555555555555555555555555555555555555555555555555555555555555555555555555555555555555555555555555555519        ",
"      O-5555555555555555555555555555555555555555555555555555555555555555555555555555555555555555555555555555555555555519        ",
"      O-5555555555555555555555555555555555555555555555555555555555555555555555555555555555555555555555555555555555555519        ",
"      O-5555555555555555555555555555555555555555555555555555555555555555555555555555555555555555555555555555555555555519        ",
"      yi55555555555555555555555555555555555555555555555555555555555555555555555555555555555555555555555555555555555555rp        ",
"      O-5555555555555555555555555555555555555555555555555555555555555555555555555555555555555555555555555555555555555519        ",
"      O-5555555555555555555555555555555555555555555555555555555555555555555555555555555555555555555555555555555555555519        ",
"      O-5555555555555555555555555555555555555555555555555555555555555555555555555555555555555555555555555555555555555519        ",
"      $:55555555555555555555555555555555555555555555555555555555555555555555555555555555555555555555555555555555555555q@        ",
"      O-5555555555555555555555555555555555555555555555555555555555555555555555555555555555555555555555555555555555555519        ",
"      O-5555555555555555555555555555555555555555555555555555555555555555555555555555555555555555555555555555555555555519        ",
"      O-5555555555555555555555555555555555555555555555555555555555555555555555555555555555555555555555555555555555555519        ",
"      er55555555555555555555555555555555555555555555555555555555555555555555555555555555555555555555555555555555555555ty        ",
"      O-5555555555555555555555555555555555555555555555555555555555555555555555555555555555555555555555555555555555555519        ",
"      O-5555555555555555555555555555555555555555555555555555555555555555555555555555555555555555555555555555555555555519        ",
"      O-5555555555555555555555555555555555555555555555555555555555555555555555555555555555555555555555555555555555555519        ",
"      o=55555555555555555555555555555555555555555555555555555555555555555555555555555555555555555555555555555555555555>+        ",
"      O-5555555555555555555555555555555555555555555555555555555555555555555555555555555555555555555555555555555555555519        ",
"      O-5555555555555555555555555555555555555555555555555555555555555555555555555555555555555555555555555555555555555519        ",
"      O-5555555555555555555555555555555555555555555555555555555555555555555555555555555555555555555555555555555555555519        ",
"      @>55555555555555555555555555555555555555555555555555555555555555555555555555555555555555555555555555555555555555:o        ",
"      O-5555555555555555555555555555555555555555555555555555555555555555555555555555555555555555555555555555555555555519        ",
"      O-5555555555555555555555555555555555555555555555555555555555555555555555555555555555555555555555555555555555555519        ",
"      $:55555555555555555555555555555555555555555555555555555555555555555555555555555555555555555555555555555555555555q@        ",
"      O-5555555555555555555555555555555555555555555555555555555555555555555555555555555555555555555555555555555555555519        ",
"      O-5555555555555555555555555555555555555555555555555555555555555555555555555555555555555555555555555555555555555519        ",
"      &1555555555555555555555555555555555555555555555555555555555555555555555555555555555555555555555555555555555555550O        ",
"      O-5555555555555555555555555555555555555555555555555555555555555555555555555555555555555555555555555555555555555519        ",
"      er55555555555555555555555555555555555555555555555555555555555555555555555555555555555555555555555555555555555555ty        ",
"      .455555555555555555555555555555555555555555555555555555555555555555555555555555555555555555555555555555555555555,X        ",
"      .34>1=11,11,11:111u111q111a1111q1111u1111u1111u111141111111111>1111u1111u1111u1111q11110111q111u111411,11q11=1>43@        ",
"       X++9699@99@99o999.999.999s9999.9999.9999.9999.9999+9999999999+9999.9999.9999.9999.9999O999.999.999o99@99@9969wo@         ",
"                                                                                                                                ",
"                                                                                                                                ",
"                                                                                                                                ",
"                                                                                                                                ",
"                                                                                                                                "
};
